<svg width="254" height="73" viewBox="0 0 254 73" fill="none" xmlns="http://www.w3.org/2000/svg">
<g clip-path="url(#clip0_5904_3607)">
<path d="M10.92 69.34C7.48 67.26 4.79 64.32 2.88 60.51C0.96 56.71 0 52.34 0 47.4C0 42.46 0.96 38.09 2.88 34.28C4.8 30.48 7.48 27.54 10.92 25.46C14.37 23.38 18.3 22.34 22.72 22.34C25.78 22.34 28.62 22.85 31.25 23.85C33.88 24.86 36.11 26.27 37.93 28.09V0H53.24V71.48H39.49L39.3 65.04C37.48 67.38 35.14 69.2 32.28 70.5C29.42 71.8 26.24 72.45 22.72 72.45C18.3 72.45 14.37 71.41 10.92 69.33V69.34ZM18.38 56.17C20.49 58.45 23.24 59.58 26.62 59.58C30 59.58 32.76 58.46 34.91 56.22C37.05 53.98 38.13 51.04 38.13 47.39C38.13 43.74 37.06 40.81 34.91 38.57C32.76 36.33 30 35.21 26.62 35.21C23.24 35.21 20.49 36.35 18.38 38.62C16.26 40.9 15.21 43.82 15.21 47.4C15.21 50.98 16.26 53.9 18.38 56.18" fill="#FFB300"/>
<path d="M61.92 0H77.23V28.58C80.94 24.35 85.84 22.24 91.95 22.24C98.06 22.24 102.56 24.22 106.04 28.19C109.52 32.16 111.26 37.52 111.26 44.28V71.49H95.95V45.16C95.95 42.04 95.19 39.6 93.66 37.85C92.13 36.1 90 35.22 87.27 35.22C84.28 35.22 81.86 36.23 80 38.24C78.15 40.26 77.22 42.89 77.22 46.14V71.49H61.91V0H61.92Z" fill="#FFB300"/>
<path d="M127.69 69.29C124.21 67.18 121.5 64.22 119.55 60.42C117.6 56.62 116.63 52.28 116.63 47.4C116.63 42.52 117.6 38.19 119.55 34.38C121.5 30.58 124.21 27.62 127.69 25.51C131.17 23.4 135.15 22.34 139.64 22.34C142.89 22.34 145.88 22.91 148.61 24.05C151.34 25.19 154.54 27.69 156.49 29.83L156.6 23.31H169.86V71.48H156.6L156.71 65.73C152.61 70.22 146.19 72.46 139.63 72.46C135.14 72.46 131.16 71.4 127.68 69.29H127.69ZM134.99 56.17C137.1 58.45 139.85 59.58 143.23 59.58C146.61 59.58 149.37 58.46 151.52 56.22C153.66 53.98 154.74 51.04 154.74 47.39C154.74 43.74 153.67 40.81 151.52 38.57C149.37 36.33 146.61 35.21 143.23 35.21C139.85 35.21 137.1 36.35 134.99 38.62C132.88 40.9 131.82 43.82 131.82 47.4C131.82 50.98 132.88 53.9 134.99 56.18" fill="#FFB300"/>
<path d="M178.54 21.25H192.69L192.77 28.97C194.66 26.82 196.91 25.17 199.55 23.99C202.18 22.82 205.09 22.24 208.28 22.24C214.26 22.24 219.02 24.19 222.56 28.09C226.1 31.99 227.88 37.39 227.88 44.27V71.48H212.57V45.15C212.57 42.03 211.79 39.59 210.23 37.84C208.67 36.09 206.52 35.21 203.79 35.21C200.8 35.21 198.39 36.22 196.57 38.23C194.75 40.25 193.84 42.88 193.84 46.13V71.48H178.53V21.25H178.54Z" fill="#FFB300"/>
<path d="M237.3 2.42C239.05 0.81 241.26 0 243.95 0C246.64 0 248.85 0.8 250.6 2.42C252.34 4.03 253.22 6.12 253.22 8.67C253.22 11.22 252.36 13.2 250.65 14.82C248.94 16.43 246.7 17.23 243.95 17.23C241.2 17.23 238.96 16.43 237.25 14.82C235.54 13.21 234.68 11.16 234.68 8.67C234.68 6.18 235.55 4.04 237.3 2.42Z" fill="#FFB300"/>
<path d="M251.28 20.01H235.97V71.49H251.28V20.01Z" fill="#FFB300"/>
</g>
<defs>
<clipPath id="clip0_5904_3607">
<rect width="253.22" height="72.46" fill="white"/>
</clipPath>
</defs>
</svg>
