<?xml version="1.0" encoding="utf-8"?>
<!-- Generator: Adobe Illustrator 21.0.0, SVG Export Plug-In . SVG Version: 6.00 Build 0)  -->
<svg version="1.1" id="Layer_1" xmlns="http://www.w3.org/2000/svg" xmlns:xlink="http://www.w3.org/1999/xlink" x="0px" y="0px"
	 viewBox="0 0 167 50" style="enable-background:new 0 0 167 50;" xml:space="preserve">
<style type="text/css">
	.st0{fill:#021959;}
	.st1{fill:#F7A210;}
	.st2{fill-rule:evenodd;clip-rule:evenodd;fill:#F7A210;}
</style>
<path class="st0" d="M19.7,36.6v-3.3c1.9,0.7,4,1.1,6.4,1.1c2.9,0,4.3-1,4.3-3c0-1.5-0.9-2.2-2.7-2.2h-3c-3.9,0-5.8-1.8-5.8-5.5
	c0-4,2.8-6,8.2-6c2.1,0,4.1,0.3,6,1v3.3c-1.9-0.7-3.9-1.1-6-1.1c-3.2,0-4.8,1-4.8,2.9c0,1.5,0.8,2.2,2.3,2.2h3
	c4.1,0,6.2,1.8,6.2,5.5c0,4.1-2.6,6.2-7.8,6.2C23.8,37.6,21.6,37.3,19.7,36.6"/>
<path class="st0" d="M42.5,23c4.2,0,6.3,2.2,6.3,6.7c0,0.6,0,1.2-0.1,1.8h-9.2c0,2,1.4,3,4.3,3c1.4,0,2.8-0.1,4.2-0.4v2.9
	c-1.2,0.3-2.7,0.4-4.5,0.4c-5,0-7.5-2.5-7.5-7.4C36,25.4,38.1,23,42.5,23 M39.5,29h5.9v-0.1c0-2-1-3-2.9-3
	C40.6,25.9,39.6,26.9,39.5,29"/>
<path class="st0" d="M51.4,37.5V23h2.7l0.4,1.8c1.2-1.2,2.5-1.8,3.9-1.8V26c-1.3,0-2.5,0.6-3.5,1.7v9.8H51.4z"/>
<polygon class="st0" points="58.7,23 62.4,23 65.8,33.1 69.3,23 73,23 67.4,37.5 64,37.5 "/>
<path class="st0" d="M78.2,20.7h-3.5v-2.9h3.5V20.7z M78.2,37.5h-3.5V23h3.5V37.5z"/>
<path class="st0" d="M91.7,37.1c-1.1,0.3-2.3,0.4-3.6,0.4c-4.9,0-7.4-2.5-7.4-7.5c0-4.6,2.5-6.9,7.4-6.9c1.2,0,2.4,0.1,3.6,0.4v2.9
	c-1.1-0.3-2.2-0.4-3.3-0.4c-2.8,0-4.2,1.4-4.2,4.1c0,3.1,1.4,4.6,4.2,4.6c1.1,0,2.2-0.1,3.3-0.4V37.1z"/>
<path class="st0" d="M99.8,23c4.2,0,6.3,2.2,6.3,6.7c0,0.6,0,1.2-0.1,1.8h-9.2c0,2,1.4,3,4.3,3c1.4,0,2.8-0.1,4.2-0.4v2.9
	c-1.2,0.3-2.7,0.4-4.5,0.4c-5,0-7.5-2.5-7.5-7.4C93.3,25.4,95.5,23,99.8,23 M96.8,29h5.9v-0.1c0-2-1-3-2.9-3
	C98,25.9,97,26.9,96.8,29"/>
<path class="st1" d="M109.1,37.5V17.8h8.4c3.9,0,5.8,1.8,5.8,5.5c0,4-2.6,6.4-7.9,7.3l-0.5-3.2c3.2-0.6,4.8-1.9,4.8-3.9
	c0-1.6-0.8-2.4-2.3-2.4h-4.7v16.4H109.1z"/>
<rect x="125.3" y="17.8" class="st1" width="3.5" height="19.6"/>
<path class="st1" d="M144.6,23v14.4h-2.7l-0.4-1.8c-1.6,1.2-3.3,1.8-5.1,1.8c-2.8,0-4.3-1.7-4.3-5.2V23h3.5v9.1c0,1.6,0.7,2.4,2,2.4
	c1.1,0,2.3-0.5,3.5-1.4V23H144.6z"/>
<path class="st1" d="M147.9,36.8v-3c1.5,0.6,3.3,1,5.3,1c1.5,0,2.3-0.5,2.3-1.5c0-1-0.5-1.4-1.5-1.4h-2.5c-2.8,0-4.2-1.4-4.2-4.3
	c0-3,2.1-4.5,6.2-4.5c1.7,0,3.4,0.3,4.9,0.8v3c-1.5-0.6-3.2-1-5-1c-1.9,0-2.8,0.5-2.8,1.5c0,1,0.6,1.4,1.7,1.4h2.2
	c3.1,0,4.6,1.4,4.6,4.3c0,3-2,4.5-5.9,4.5C151.2,37.6,149.4,37.3,147.9,36.8"/>
<polygon points="61.6,46.2 61.6,43.2 57.8,43.2 57.8,46.2 57,46.2 57,39.7 57.8,39.7 57.8,42.5 61.6,42.5 61.6,39.7 62.4,39.7 
	62.4,46.2 "/>
<path d="M63.6,43.8c0-1.4,0.9-2.5,2.3-2.5c1.4,0,2.3,1.1,2.3,2.5c0,1.4-0.9,2.5-2.3,2.5C64.5,46.3,63.6,45.2,63.6,43.8 M67.5,43.8
	c0-1-0.6-1.8-1.6-1.8c-1,0-1.6,0.9-1.6,1.8c0,1,0.6,1.8,1.6,1.8C66.9,45.6,67.5,44.8,67.5,43.8"/>
<path d="M75.1,46.2V43c0-0.6-0.3-1-0.9-1c-0.5,0-1,0.3-1.2,0.7v3.4h-0.7V43c0-0.6-0.3-1-0.9-1c-0.5,0-1,0.3-1.2,0.7v3.4h-0.7v-4.7
	h0.7v0.7c0.2-0.3,0.8-0.8,1.5-0.8c0.7,0,1.1,0.4,1.3,0.9c0.3-0.4,0.9-0.9,1.6-0.9c0.9,0,1.3,0.5,1.3,1.4v3.4H75.1z"/>
<path d="M77,43.8c0-1.4,1-2.5,2.3-2.5c1.4,0,2.3,1.1,2.3,2.5V44h-3.8c0.1,0.9,0.7,1.6,1.7,1.6c0.5,0,1.1-0.2,1.4-0.6l0.4,0.5
	c-0.5,0.5-1.1,0.7-1.9,0.7C78,46.3,77,45.3,77,43.8 M79.3,41.9c-1,0-1.5,0.8-1.5,1.6h3.1C80.9,42.8,80.4,41.9,79.3,41.9"/>
<polygon points="90.3,46.2 88.9,40.9 87.4,46.2 86.5,46.2 84.7,39.7 85.6,39.7 87,45.1 88.5,39.7 89.2,39.7 90.7,45.1 92.1,39.7 
	93,39.7 91.2,46.2 "/>
<path d="M96.4,46.2v-0.5c-0.4,0.4-0.9,0.7-1.6,0.7c-0.8,0-1.6-0.5-1.6-1.6c0-1.1,0.8-1.5,1.6-1.5c0.6,0,1.2,0.2,1.6,0.6V43
	c0-0.6-0.5-1-1.2-1c-0.6,0-1,0.2-1.4,0.7l-0.3-0.5c0.5-0.5,1.1-0.8,1.9-0.8c1,0,1.8,0.4,1.8,1.6v3.2H96.4z M96.4,45.2v-0.9
	c-0.3-0.4-0.8-0.6-1.3-0.6c-0.7,0-1.2,0.4-1.2,1c0,0.6,0.5,1,1.2,1C95.7,45.7,96.2,45.6,96.4,45.2"/>
<path d="M98.6,46.2v-4.7h0.7v0.8c0.4-0.5,0.9-0.9,1.6-0.9v0.8c-0.1,0-0.2,0-0.3,0c-0.4,0-1.1,0.4-1.3,0.8v3.3H98.6z"/>
<path d="M101.8,46.2v-4.7h0.7v0.8c0.4-0.5,0.9-0.9,1.6-0.9v0.8c-0.1,0-0.2,0-0.3,0c-0.4,0-1.1,0.4-1.3,0.8v3.3H101.8z"/>
<path d="M108,46.2v-0.5c-0.4,0.4-0.9,0.7-1.6,0.7c-0.8,0-1.6-0.5-1.6-1.6c0-1.1,0.8-1.5,1.6-1.5c0.6,0,1.2,0.2,1.6,0.6V43
	c0-0.6-0.5-1-1.2-1c-0.6,0-1,0.2-1.4,0.7l-0.3-0.5c0.5-0.5,1.1-0.8,1.9-0.8c1,0,1.8,0.4,1.8,1.6v3.2H108z M108,45.2v-0.9
	c-0.3-0.4-0.8-0.6-1.3-0.6c-0.7,0-1.2,0.4-1.2,1c0,0.6,0.5,1,1.2,1C107.2,45.7,107.7,45.6,108,45.2"/>
<path d="M113.4,46.2v-3.1c0-0.8-0.4-1.1-1.1-1.1c-0.6,0-1.1,0.3-1.4,0.7v3.4h-0.7v-4.7h0.7v0.7c0.3-0.4,1-0.8,1.7-0.8
	c1,0,1.5,0.5,1.5,1.5v3.3H113.4z"/>
<path d="M115.7,45.2v-3.1h-0.8v-0.6h0.8v-1.3h0.7v1.3h1v0.6h-1V45c0,0.4,0.2,0.6,0.5,0.6c0.2,0,0.4-0.1,0.5-0.2l0.2,0.5
	c-0.2,0.2-0.4,0.3-0.9,0.3C116,46.3,115.7,45.9,115.7,45.2"/>
<path d="M118.3,47.3c0.1,0,0.3,0.1,0.4,0.1c0.3,0,0.5-0.1,0.7-0.5l0.3-0.7l-2-4.8h0.8l1.6,3.9l1.6-3.9h0.8l-2.4,5.7
	c-0.3,0.7-0.8,0.9-1.4,1c-0.2,0-0.4,0-0.5-0.1L118.3,47.3z"/>
<polygon points="52.8,44.2 19.7,43.3 52.8,42.4 "/>
<polygon points="125.8,44.2 158.8,43.3 125.8,42.4 "/>
<path d="M162.8,22.7l-0.6-1h-0.5v1h-0.3v-2.4h1c0.4,0,0.8,0.3,0.8,0.7c0,0.4-0.3,0.7-0.6,0.7l0.7,1H162.8z M162.8,21
	c0-0.3-0.2-0.5-0.5-0.5h-0.6v0.9h0.6C162.6,21.5,162.8,21.3,162.8,21"/>
<path d="M162.2,19.3c-1.3,0-2.3,1-2.3,2.3s1,2.3,2.3,2.3s2.3-1,2.3-2.3S163.5,19.3,162.2,19.3 M163.6,23c-0.4,0.4-0.9,0.6-1.4,0.6
	s-1.1-0.2-1.4-0.6c-0.4-0.4-0.6-0.9-0.6-1.4c0-0.6,0.2-1.1,0.6-1.4c0.4-0.4,0.9-0.6,1.4-0.6s1.1,0.2,1.4,0.6
	c0.4,0.4,0.6,0.9,0.6,1.4C164.2,22.2,164,22.7,163.6,23"/>
<path class="st2" d="M16.9,10.5c0,0,0,27.2,0,27.2c0,0-12.5-6.1-12.5-6.1V16.6L16.9,10.5z M6.3,24.4v5.9l3.2,1.2v-7H6.3z M10.1,24.4
	v7.3l4.4,1.6v-8.9H10.1z M14.5,23.8v-9.1l-4.4,1.7v7.4H14.5z M9.4,23.8v-7.1l-3.2,1.2v5.9H9.4z"/>
<polygon class="st2" points="16.9,1.4 33.1,14.4 33.1,17.2 16.9,8 "/>
<polygon class="st2" points="16.9,1.4 0.7,14.4 0.7,17.2 16.9,8 "/>
</svg>
